<svg xmlns="http://www.w3.org/2000/svg" viewBox="0 0 32 32"><defs><style>.cls-1{fill:#231f20}</style></defs><g id="parrot_2" data-name="parrot 2"><path class="cls-1" d="M28 18h-7.86a4.84 4.84 0 0 0 .86-2.77v-3.36a2.84 2.84 0 0 0 .84.14h.25a3.09 3.09 0 0 0 2.17-1.27A3.76 3.76 0 0 0 25 7.81 3.73 3.73 0 0 0 22.27 5a3.8 3.8 0 0 0-1.47-.12A4 4 0 0 0 17.05 2h-.46a6.44 6.44 0 0 0-4.94 2.36A7.14 7.14 0 0 0 10 9v.12a1 1 0 0 0 .59 1.05A2.62 2.62 0 0 1 12 12.6v1.2a6.9 6.9 0 0 1-1.73 4.68A4.63 4.63 0 0 1 8 19.87v-1.64h.09a2.73 2.73 0 0 0 1.42-.38A3.59 3.59 0 0 0 11 15.19a6.35 6.35 0 0 0 0-2.38 1 1 0 1 0-2 .38 4.41 4.41 0 0 1 0 1.62c-.14.69-.25 1.16-.53 1.33a.88.88 0 0 1-.49.09V12.6a3.12 3.12 0 0 1 .24-1.22 1 1 0 0 0-1.85-.76 5.1 5.1 0 0 0-.39 2V17H6v1H4a1 1 0 0 0 0 2h2v1a1 1 0 0 0 1 1 6.22 6.22 0 0 0 3-.79V28a1 1 0 0 0 1 1h1.05A4.77 4.77 0 0 0 17 24.45V20h6.46l1.71 2.55A1 1 0 0 0 26 23a.94.94 0 0 0 .55-.17 1 1 0 0 0 .28-1.38l-1-1.45H28a1 1 0 0 0 0-2zM21.73 7A1.81 1.81 0 0 1 23 8.19a1.79 1.79 0 0 1-.35 1.33 1.15 1.15 0 0 1-.76.48 1.35 1.35 0 0 1-.89-.4V9a1 1 0 0 0-.11-.45l-.65-1.3.28-.25a2 2 0 0 1 1.21 0zm-8.55-1.36A4.46 4.46 0 0 1 16.59 4h.46A2 2 0 0 1 19 5.72l-.61.52a1 1 0 0 0-.24 1.21L19 9.24v6A2.66 2.66 0 0 1 16.47 18H13a9.31 9.31 0 0 0 1-4.2v-1.2a4.79 4.79 0 0 0-2-4 5.19 5.19 0 0 1 1.18-2.96zM12.05 27H12v-7h3v4.45A2.77 2.77 0 0 1 12.05 27z"/><path class="cls-1" d="M16 8a1 1 0 0 0 0-2 1 1 0 1 0 0 2z"/></g></svg>