<svg xmlns="http://www.w3.org/2000/svg" viewBox="0 0 32 32"><defs><style>.cls-1{fill:#231f20}</style></defs><g id="penguin_2" data-name="penguin 2"><path class="cls-1" d="M22 25a10.7 10.7 0 0 0 0-5.86 1 1 0 0 0-1.68-.42 2.69 2.69 0 0 1-1 .67L19.6 18a4.09 4.09 0 0 0-1-3.7 3.57 3.57 0 0 0-5.3 0 4.09 4.09 0 0 0-.9 3.7l.32 1.39a2.69 2.69 0 0 1-1-.67 1 1 0 0 0-1.68.42 11.08 11.08 0 0 0-.39 3.95A10.22 10.22 0 0 0 10 25a4.11 4.11 0 0 0-1.22.21 11.89 11.89 0 0 1 0-8.55 6.56 6.56 0 0 1 1.51-2.16A6 6 0 0 0 12 10.33V8.21A4.14 4.14 0 0 1 15.6 4a4 4 0 0 1 3.09 1A4 4 0 0 1 20 8v2.33a6.06 6.06 0 0 0 1.2 3.6l.65.86A10.55 10.55 0 0 1 24 21a12.91 12.91 0 0 1-.14 1.85 1 1 0 1 0 2 .3 14.28 14.28 0 0 0 .14-2.22 12.49 12.49 0 0 0-2.55-7.34l-.65-.86a4 4 0 0 1-.8-2.4V8a6 6 0 0 0-6.59-6A6.17 6.17 0 0 0 10 8.21v2.12a4 4 0 0 1-1.12 2.78A8.78 8.78 0 0 0 7 15.93a14 14 0 0 0 .1 10.39A4 4 0 0 0 6 29a1 1 0 0 0 1 1h18a1 1 0 0 0 1-1 4 4 0 0 0-4-4zm-9.65.57a7.52 7.52 0 0 1-.39-1 8 8 0 0 1-.32-1.63 8.27 8.27 0 0 1 0-1.79 4.38 4.38 0 0 0 1.16.36 4.11 4.11 0 0 0 1.31 0 1 1 0 0 0 .68-.43 1 1 0 0 0 .14-.78l-.62-2.72a2.1 2.1 0 0 1 .47-1.89 1.6 1.6 0 0 1 2.36 0 2.1 2.1 0 0 1 .47 1.89L17 20.27a1 1 0 0 0 .14.78 1 1 0 0 0 .68.43 4.11 4.11 0 0 0 1.31 0 4.58 4.58 0 0 0 1.17-.36 8.3 8.3 0 0 1-.3 3.42 7.52 7.52 0 0 1-.39 1 1.34 1.34 0 0 0-.07.27 4 4 0 0 0-1.4 2.19h-4.28a4 4 0 0 0-1.44-2.16 1.34 1.34 0 0 0-.07-.27zM8.27 28a2 2 0 0 1 3.46 0zm12 0a2 2 0 0 1 3.46 0z"/><path class="cls-1" d="M14 7a1 1 0 1 0 1 1 1 1 0 0 0-1-1zM18 9a1 1 0 0 0 0-2 1 1 0 1 0 0 2zM16 12a1 1 0 0 0 0-2 1 1 0 1 0 0 2z"/></g></svg>